<svg width="54" height="50" viewBox="0 0 54 50" fill="none" xmlns="http://www.w3.org/2000/svg">
<path fill-rule="evenodd" clip-rule="evenodd" d="M39.3498 42.1286C42.5059 37.784 44.6886 31.6958 45.9342 24.8217C48.3369 11.5599 37.4449 1 27.0671 1C21.9959 1 18.152 3.55797 15.1141 7.89102C12.0513 12.2595 9.86495 18.3646 8.18752 25.2371C6.58981 31.7831 8.68346 37.7047 12.513 42.0192C16.3615 46.355 21.9057 49 27.0671 49C32.1548 49 36.2125 46.4472 39.3498 42.1286ZM46.9182 25C44.3976 38.9102 38.0308 50 27.0671 50C16.1034 50 3.84255 38.8215 7.21604 25C10.5895 11.1785 16.1034 -4.79236e-07 27.0671 0C38.0308 4.79237e-07 49.4387 11.0879 46.9182 25Z" fill="white"/>
<path d="M27.0756 37.2271L32.8796 31.4231L32.2101 30.7536L26.4061 36.5576L27.0756 37.2271Z" fill="white"/>
<path d="M27.5378 36.7274V12.9999L26.6135 12.9999L26.6135 36.7274H27.5378Z" fill="white"/>
<path d="M21.2718 31.4231L27.0756 37.2271L27.7453 36.5576L21.9413 30.7536L21.2718 31.4231Z" fill="white"/>
</svg>
